<?xml version="1.0" encoding="UTF-8"?>
<svg id="Layer_2" data-name="Layer 2" xmlns="http://www.w3.org/2000/svg" viewBox="0 0 216.06 118.31">
  <defs>
    <style>
      .cls-1 {
        stroke: #1773f4;
      }

      .cls-1, .cls-2 {
        stroke-width: 20.5px;
      }

      .cls-1, .cls-2, .cls-3 {
        fill: none;
        stroke-linecap: round;
        stroke-linejoin: round;
      }

      .cls-4 {
        fill: #36169a;
      }

      .cls-4, .cls-5 {
        stroke-width: 0px;
      }

      .cls-2, .cls-3 {
        stroke: #36169a;
      }

      .cls-5 {
        fill: #1773f4;
      }

      .cls-3 {
        stroke-width: 20px;
      }
    </style>
  </defs>
  <g id="Layer_1-2" data-name="Layer 1">
    <path class="cls-4" d="M205.75,48.81h-47.64c-5.69,0-10.31,4.62-10.31,10.31s4.62,10.31,10.31,10.31h35.93c-4.52,16.27-19.47,28.25-37.16,28.25-5.69,0-10.31,4.62-10.31,10.31s4.62,10.31,10.31,10.31c15.81,0,30.67-6.16,41.85-17.33,11.18-11.18,17.33-26.04,17.33-41.85,0-5.69-4.62-10.31-10.31-10.31Z"/>
    <circle class="cls-3" cx="59.12" cy="59.12" r="48.87"/>
    <path class="cls-1" d="M10.25,59.12c0-26.99,21.88-48.87,48.87-48.87"/>
    <path class="cls-1" d="M59.12,108c-26.99,0-48.87-21.88-48.87-48.87"/>
    <path class="cls-2" d="M108,59.12c0,26.99-21.88,48.87-48.87,48.87"/>
    <circle class="cls-4" cx="108" cy="58.45" r="10.26"/>
    <path class="cls-2" d="M108,59.12c0-26.99,21.88-48.87,48.87-48.87"/>
    <path class="cls-2" d="M157.44,10.25c15.9,0,30.03,7.59,38.95,19.35"/>
    <path class="cls-1" d="M156.87,108c-26.99,0-48.87-21.88-48.87-48.87"/>
    <circle class="cls-5" cx="157.44" cy="59.12" r="10.26"/>
    <path class="cls-1" d="M59.12,10.25c26.99,0,48.87,21.88,48.87,48.87"/>
  </g>
</svg>